# xmcd CD database file
#
# Track frame offsets:
#	150
#	20039
#	40089
#	60114
#	79911
#	98284
#	115890
#	137071
#	156147
#	177661
#
# Disc length: 2626 seconds
#
# Revision: 0
# Processed by: cddbd v1.5.2PL0 Copyright (c) Steve Scherf et al.
# Submitted via: CDex 1.51
#
DISCID=760a400a
DTITLE=Grupo Mania - 20 Exitos Originales CD2
DYEAR=1900
DGENRE=Merengue
TTITLE0=Magia
TTITLE1=Acéptame Como Soy
TTITLE2=Pa'l Bailador
TTITLE3=Bajo La Lluvia
TTITLE4=Corazoncito
TTITLE5=Mirala
TTITLE6=Es Un Bombon
TTITLE7=Te Vas A Caer De La Nube
TTITLE8=Sensual
TTITLE9=Cuento Con Mi Pueblo
EXTD=
EXTT0=
EXTT1=
EXTT2=
EXTT3=
EXTT4=
EXTT5=
EXTT6=
EXTT7=
EXTT8=
EXTT9=
PLAYORDER=
